<?xml version="1.0" standalone="no"?>
<!DOCTYPE svg PUBLIC "-//W3C//DTD SVG 20010904//EN"
 "http://www.w3.org/TR/2001/REC-SVG-20010904/DTD/svg10.dtd">
<svg version="1.0" xmlns="http://www.w3.org/2000/svg"
 width="2048.000000pt" height="2048.000000pt" viewBox="0 0 2048.000000 2048.000000"
 preserveAspectRatio="xMidYMid meet">

<g transform="translate(0.000000,2048.000000) scale(0.100000,-0.100000)"
fill="#000000" stroke="none">
<path d="M12375 20466 c-177 -25 -381 -105 -520 -204 -69 -50 -189 -166 -239
-232 -259 -342 -306 -810 -119 -1185 166 -331 454 -547 828 -622 84 -16 221
-18 2180 -20 l2089 -4 -4755 -4757 c-4133 -4134 -4763 -4768 -4811 -4842 -75
-114 -122 -215 -153 -330 -107 -402 2 -820 290 -1105 191 -189 411 -294 686
-326 181 -21 417 18 586 96 199 92 -140 -240 5003 4901 2615 2615 4758 4754
4763 4754 4 0 7 -940 7 -2089 0 -2067 0 -2091 21 -2196 25 -133 55 -216 118
-331 105 -195 250 -342 443 -448 311 -172 666 -189 1003 -49 166 69 354 222
467 378 110 153 188 365 208 565 8 85 10 1028 8 3585 -3 3299 -4 3474 -22
3545 -34 143 -79 261 -136 358 -172 290 -416 464 -770 548 -71 18 -245 19
-3580 20 -2736 2 -3525 -1 -3595 -10z"/>
<path d="M3195 18193 c-387 -30 -767 -120 -1090 -255 -417 -175 -753 -399
-1081 -721 -599 -585 -952 -1359 -1014 -2222 -14 -192 -14 -11575 0 -11775 32
-464 136 -867 330 -1275 254 -536 659 -1009 1155 -1348 502 -342 1077 -540
1710 -587 197 -14 11575 -14 11787 1 277 19 560 71 808 149 536 168 985 437
1376 825 208 206 347 375 480 585 230 360 390 754 473 1165 74 366 71 254 71
2926 0 2626 3 2474 -62 2664 -38 112 -66 168 -135 272 -226 344 -639 536
-1055 493 -113 -11 -292 -62 -383 -107 -324 -164 -536 -448 -618 -828 -7 -34
-12 -806 -17 -2485 l-6 -2435 -26 -95 c-37 -132 -53 -174 -100 -260 -112 -206
-293 -382 -498 -485 -142 -71 -255 -101 -435 -115 -165 -13 -11369 -13 -11534
0 -69 5 -165 21 -215 34 -384 102 -694 413 -804 803 l-27 98 0 5880 c0 4864 2
5890 13 5935 83 340 286 608 584 769 89 48 126 62 258 99 l95 27 2435 6 c1677
4 2451 9 2485 16 291 63 513 191 680 395 166 201 270 490 264 731 -7 308 -125
585 -341 798 -124 123 -265 210 -433 267 -191 66 -35 62 -2685 60 -1323 -1
-2423 -3 -2445 -5z"/>
</g>
</svg>
